<svg id="Logo_copy" data-name="Logo copy" xmlns="http://www.w3.org/2000/svg" width="80" height="80" viewBox="0 0 1000 1000">
  <defs>
    <style>
      .cls-1, .cls-3 {
        font-size: 6.75px;
      }

      .cls-1 {
        text-anchor: middle;
        font-family: Montserrat;
        font-style: italic;
      }

      .cls-1, .cls-4 {
        fill: #fff;
      }

      .cls-2 {
        font-size: 6.909px;
      }

      .cls-3 {
        font-weight: 800;
      }

      .cls-4 {
        fill-rule: evenodd;
      }
    </style>
  </defs>
  <text id="valores" class="cls-1" transform="matrix(28.438, 0, 0, 28.438, 505.147, 765.959)"><tspan x="0">va<tspan class="cls-2">l</tspan>o<tspan class="cls-3">res</tspan></tspan></text>
  <g id="Icon_copy" data-name="Icon copy">
    <path class="cls-4" d="M480.891,566.611L382.222,380.635l-25.116-6.578s-10.166-1.345-16.744-13.156l-45.447-107.04s-1.047-4.934,4.186-2.99l43.055,83.719s9.269,5.98,8.97-4.784l-44.85-82.523s-1.2-3.439,2.99-2.99l46.644,81.925s8.521,6.279,8.372-4.186L315.844,241.9s-1.5-4.336,2.99-2.99l51.428,80.729s8.521,2.691,7.774-5.382l-51.428-78.935s-1.2-4.784,4.186-2.392l71.161,91.493s6.877,8.521,2.99,22.126l-5.98,23.919L504.81,534.918Zm23.919-31.693,1.794,2.392-17.341,22.126-2.392,3.587-0.6,7.176v4.784s1.395,7.774.6,1.794l-5.98-10.166"/>
    <path class="cls-4" d="M485.675,566.611s-2.711,18.987,10.165,26.312c0,0,18.369,12.259,35.282-5.382,0,0,3.269-1.794,9.568-21.528,0,0,31.694-73.4,33.488-75.347s34.085-73.852,37.673-76.543c0,0,15.847-31.993,23.92-37.674,0,0,22.126,5.233,33.488-1.794,0,0,24.368-8.969,35.621-40.792-0.1.219,7.2-17.809,9.228-33.359,0,0,2.841-36.179-6.578-45.447,0,0-9.568-16.3-35.281-11.362,0,0-39.991,10.614-59.8,47.241,0,0-17.267,31.843-10.673,49.308a81.275,81.275,0,0,0,13.663,24.843s-7.325,22.425-16.145,33.488c0,0-38.571,60.547-39.468,61s-61.892,87.607-63.387,87.906C496.439,547.476,484.479,560.333,485.675,566.611Zm4.784-4.186s-6.442,15.1,5.381,25.714c0,0,16.283,15.249,33.488-4.186,0,0,25.1-62.64,28.7-67.573,0,0,27.657-60.1,31.694-66.377,0,0,23.321-48.438,27.507-54.418,0,0,13.306-21.677,17.94-23.322,0,0,17.79,5.831,31.694-.6,0,0,20.78-9.493,31.1-32.291,0,0,13.9-30.2,12.558-44.252,0,0,2.392-32.74-9.568-40.663a32.341,32.341,0,0,0-35.281-4.186c-20.332,9.717-27.209,16.145-33.488,22.723s-22.275,27.209-26.312,45.448c0,0-3.737,34.833,16.146,44.849,0,0-20.93,44.85-32.291,58.6,0,0-35.133,53.57-38.272,56.809-3.851,3.974-49.185,70.115-55.015,75.945Z"/>
  </g>
</svg>
